<svg id="Ebene_1" data-name="Ebene 1" xmlns="http://www.w3.org/2000/svg" viewBox="0 0 240 240"><defs><style>.cls-1{fill:#fff;}</style></defs><circle cx="120" cy="120" r="120"/><path class="cls-1" d="M49.94,119l80.81-33.29c8-3.47,35-14.57,35-14.57s12.49-4.86,11.45,6.93c-.35,4.86-3.12,21.85-5.9,40.23l-8.67,54.45s-.69,8-6.6,9.37-15.61-4.86-17.34-6.24c-1.39-1-26-16.65-35-24.28-2.43-2.08-5.2-6.24.35-11.1,12.48-11.44,27.4-25.66,36.41-34.68,4.17-4.16,8.33-13.87-9-2.08l-48.91,33s-5.55,3.47-16,.34S44,129.71,44,129.71s-8.33-5.2,5.89-10.75Z"/></svg>