<svg id="Ebene_1" data-name="Ebene 1" xmlns="http://www.w3.org/2000/svg" viewBox="0 0 190.53 188.4"><defs><style>.cls-1{fill:#f9f9f9;}.cls-2{fill:#1376ed;}</style></defs><polyline class="cls-1" points="125.2 0 0 0 0 188.4 125.2 188.4 96.2 138.4 45.2 138 45.2 119 86.2 119 72.4 94.2 85.2 71 45.2 71 45.2 49 96.2 48.93"/><polyline class="cls-1" points="138.27 0 85.2 94.2 138.27 188.4 190.53 188.4 137.87 95 189.2 0"/><g id="Ebene_2" data-name="Ebene 2"><polyline class="cls-2" points="142.53 12 172.4 12 127.6 94.53 175.07 177.07 142.2 177 96.2 95"/></g><polyline class="cls-2" points="9.2 12 106.8 12 92.2 38 37.47 38 37.2 80 71.07 80 62.53 95 70.2 107 37.47 107 37.2 150 90.8 150 106.8 177.07 9.2 177"/></svg>