<svg xmlns="http://www.w3.org/2000/svg" viewBox="0 0 411 400.64"><defs><style>.cls-1,.cls-2{fill:#fff;}.cls-1{fill-rule:evenodd;}</style></defs><g id="Ebene_2" data-name="Ebene 2"><path class="cls-1" d="M1064.5,404.36C951,404.36,859,496.31,859,609.75c0,90.75,58.88,167.74,140.53,194.9,10.27,1.9,14-4.46,14-9.88,0-4.9-.18-21.08-.27-38.24-57.17,12.42-69.24-24.24-69.24-24.24-9.35-23.74-22.82-30-22.82-30-18.64-12.75,1.41-12.49,1.41-12.49,20.63,1.45,31.5,21.17,31.5,21.17,18.33,31.4,48.08,22.32,59.8,17.07,1.85-13.27,7.17-22.33,13-27.46-45.64-5.19-93.63-22.81-93.63-101.51,0-22.42,8-40.74,21.18-55.13-2.14-5.17-9.17-26.06,2-54.35,0,0,17.26-5.52,56.52,21.06a194.8,194.8,0,0,1,102.92,0c39.22-26.58,56.46-21.06,56.46-21.06,11.18,28.29,4.15,49.18,2,54.35,13.18,14.39,21.15,32.71,21.15,55.13,0,78.89-48.07,96.26-93.83,101.35,7.37,6.37,13.93,18.87,13.93,38,0,27.48-.23,49.6-.23,56.37,0,5.46,3.7,11.87,14.11,9.85C1211.19,777.43,1270,700.47,1270,609.75,1270,496.31,1178,404.36,1064.5,404.36Z" transform="translate(-859 -404.36)"/><path class="cls-2" d="M936.83,699.26c-.45,1-2.06,1.32-3.52.62s-2.32-2.06-1.84-3.08,2-1.34,3.54-.64,2.34,2.07,1.82,3.1Zm-2.53-1.88" transform="translate(-859 -404.36)"/><path class="cls-2" d="M945.16,708.54c-1,.9-2.9.48-4.2-.95s-1.59-3.35-.6-4.27,2.87-.48,4.21.95,1.61,3.35.59,4.27Zm-2-2.11" transform="translate(-859 -404.36)"/><path class="cls-2" d="M953.26,720.36c-1.26.88-3.32.06-4.59-1.77s-1.26-4,0-4.89,3.3-.09,4.59,1.72,1.26,4.05,0,4.94Zm0,0" transform="translate(-859 -404.36)"/><path class="cls-2" d="M964.36,731.79c-1.13,1.25-3.53.91-5.28-.78s-2.3-4-1.17-5.25,3.56-.9,5.32.79,2.33,4,1.13,5.24Zm0,0" transform="translate(-859 -404.36)"/><path class="cls-2" d="M979.67,738.43c-.49,1.61-2.8,2.34-5.13,1.65s-3.85-2.58-3.38-4.21,2.81-2.38,5.15-1.65,3.85,2.57,3.36,4.21Zm0,0" transform="translate(-859 -404.36)"/><path class="cls-2" d="M996.49,739.66c.06,1.69-1.91,3.1-4.36,3.13s-4.44-1.32-4.47-3,1.93-3.09,4.39-3.14,4.44,1.32,4.44,3Zm0,0" transform="translate(-859 -404.36)"/><path class="cls-2" d="M1012.14,737c.29,1.65-1.4,3.35-3.83,3.8s-4.59-.59-4.9-2.22,1.43-3.4,3.82-3.83,4.6.57,4.91,2.25Zm0,0" transform="translate(-859 -404.36)"/></g></svg>