<svg xmlns="http://www.w3.org/2000/svg" viewBox="0 0 339.93 59.12"><defs><style>.cls-1,.cls-6{fill:#1376ed;}.cls-2{fill:#f90815;}.cls-3,.cls-4,.cls-5{fill:none;}.cls-3,.cls-6{stroke:#f9f9f9;}.cls-3,.cls-5,.cls-6{stroke-linejoin:round;stroke-width:4px;}.cls-4,.cls-5{stroke:#ea1515;}.cls-4{stroke-miterlimit:10;stroke-width:2px;}</style></defs><g id="Ebene_1" data-name="Ebene 1"><polyline class="cls-1" points="48.1 3 55.9 3 56 26 79 26 79 3 88 3 88 56 79.2 56 79 34 56 34 56 56 48.1 56"/><path class="cls-1" d="M811,516H796v-8h38v8H819.3l-.3,45h-8" transform="translate(-793 -505)"/><path class="cls-1" d="M888.9,508h29.9l.2,8H897.3l-.3,14v1h22v7.1H897V553h22v8H888.9" transform="translate(-793 -505)"/><polyline class="cls-1" points="104.2 26 104.2 14.4 104.3 11 103 26"/><path class="cls-2" d="M944,508" transform="translate(-793 -505)"/><polyline class="cls-1" points="151 11 165.87 11 166 56 174 56 174 11 189 11 189 3 151 3"/><polyline class="cls-1" points="196 3 196 56 226 56 226 48 204 48 204 33 226 33.1 226 26 204 26 204 25.67 204 11 226 11.1 226 3 226.43 3"/><path class="cls-2" d="M1044.3,508" transform="translate(-793 -505)"/><path class="cls-2" d="M1025.2,561" transform="translate(-793 -505)"/><polyline class="cls-1" points="246.79 38 264.2 38 268 47 243 47"/><polyline class="cls-1" points="285 56 285 3 294 3 311 26 328.9 3 337.1 3 337.1 56 328.9 56 328.8 29.5 329 17 329 17 311.05 38.4 298 22 294 17 294 56"/><polygon class="cls-1" points="311.05 39.1 326.89 19.51 311.05 38.4 311.05 39.1"/><polyline class="cls-1" points="311.05 39.1 294 17 311.05 38.4"/><polyline class="cls-1" points="269.1 56.25 278 56.25 259 2.75 250.3 2.75 231.2 56.25 239.8 56.25 256 16.88"/><polyline class="cls-1" points="204 34.2 226 34.2 226 33.1 204 33"/><polyline class="cls-1" points="103.65 33.1 103.65 48.2 104.3 48.6 104.3 33.1 104.3 34 126 34 126 33.1"/><polyline class="cls-1" points="226 26 226.4 26 226.4 34.2 226 34.2"/><path class="cls-1" d="M796,500" transform="translate(-793 -505)"/><polygon class="cls-3" points="47 2 57 2 57 25 78 25 78 2 89.2 2 89 57 77.95 57 78 36 78 34.54 57 34.54 57 57 47 57 47 2"/><path class="cls-2" d="M835,506" transform="translate(-793 -505)"/><polygon class="cls-3" points="42 2 42 12 27 12 27 57 17.05 57 17.05 12 2 12 2 2 42 2"/><path class="cls-4" d="M872.2,561" transform="translate(-793 -505)"/><polygon class="cls-3" points="94.53 2 126.87 2 126.87 11.93 105 12 105 25 126.87 25 126.87 34.2 105.07 34.2 105 47 126.87 47 126.87 57 94.53 57 94.53 2"/><path class="cls-4" d="M930,527" transform="translate(-793 -505)"/><polygon class="cls-3" points="175 57.07 175 12.07 190 12.07 190 2 149.93 2 149.93 12.03 165 12 164.97 57.07 175 57.07"/><path class="cls-2" d="M982,508" transform="translate(-793 -505)"/><path class="cls-4" d="M959,493" transform="translate(-793 -505)"/><polygon class="cls-3" points="194.77 2.02 227.1 2.02 227.1 11.13 205.23 11.2 205.23 24.46 227.1 24.46 227.1 33.85 205.3 33.85 205.23 46.91 227.1 46.91 227.1 57.12 194.77 57.12 194.77 2.02"/><polygon class="cls-3" points="245 48 265.8 48 269 57 280 57 260.4 2.02 250.6 2.02 231.27 57 240.87 57 245 48"/><polygon class="cls-3" points="284.07 57 284.07 2.02 295 2.02 311.05 24.13 328.33 2.02 337.93 2.02 337.93 57 327.93 57 328.07 19.51 319.5 30.5 311.5 40.5 294.5 18.5 294.47 57 284.07 57"/><path class="cls-5" d="M1125,583" transform="translate(-793 -505)"/><polygon class="cls-6" points="255.8 15.27 246 39 264.4 39 255.8 15.27"/></g></svg>